<svg width="24" height="17" viewBox="0 0 24 17" fill="none" xmlns="http://www.w3.org/2000/svg">
<path d="M16.0474 0H7.15661C3.22414 0 0 3.19971 0 7.15661C0 9.52586 1.17241 11.7241 3.10201 13.0675C2.78448 13.6782 2.46695 14.2155 2.14943 14.6552C1.78305 15.1681 1.75862 15.8276 2.125 16.3649C2.4181 16.7802 2.85776 17 3.34626 17C3.46839 17 3.61494 16.9756 3.73707 16.9511C6.0819 16.3161 8.2069 15.1925 9.64799 14.3132H16.0718C20.0043 14.3132 23.2284 11.1135 23.2284 7.15661C23.2284 3.19971 20.0043 0 16.0474 0ZM16.0474 12.9943H9.45259C9.33046 12.9943 9.20833 13.0187 9.11063 13.092C8.01149 13.7759 5.78879 15.0216 3.39511 15.681C3.32184 15.7055 3.27299 15.681 3.22414 15.6078C3.17529 15.5345 3.17529 15.4856 3.22414 15.4124C3.68822 14.7773 4.1523 13.9957 4.56753 13.092C4.71408 12.7744 4.59195 12.408 4.29885 12.2371C2.46695 11.2112 1.31897 9.25718 1.31897 7.15661C1.31897 3.93247 3.93247 1.31897 7.15661 1.31897H16.0718C19.296 1.31897 21.9095 3.93247 21.9095 7.15661C21.9095 10.3807 19.2715 12.9943 16.0474 12.9943Z" fill="#009B3E"/>
<path d="M7.52298 5.8374H5.76436C5.52011 5.8374 5.32471 6.03281 5.32471 6.27706V8.03568C5.32471 8.27993 5.52011 8.47533 5.76436 8.47533H7.52298C7.76724 8.47533 7.96264 8.27993 7.96264 8.03568V6.27706C7.96264 6.03281 7.76724 5.8374 7.52298 5.8374Z" fill="#009B3E"/>
<path d="M12.4814 5.8374H10.7227C10.4785 5.8374 10.2831 6.03281 10.2831 6.27706V8.03568C10.2831 8.27993 10.4785 8.47533 10.7227 8.47533H12.4814C12.7256 8.47533 12.921 8.27993 12.921 8.03568V6.27706C12.921 6.03281 12.7256 5.8374 12.4814 5.8374Z" fill="#009B3E"/>
<path d="M17.4396 5.8374H15.681C15.4367 5.8374 15.2413 6.03281 15.2413 6.27706V8.03568C15.2413 8.27993 15.4367 8.47533 15.681 8.47533H17.4396C17.6839 8.47533 17.8793 8.27993 17.8793 8.03568V6.27706C17.8793 6.03281 17.6839 5.8374 17.4396 5.8374Z" fill="#009B3E"/>
</svg>
