<svg width="24" height="24" viewBox="0 0 24 24" fill="none" xmlns="http://www.w3.org/2000/svg">
<path fill-rule="evenodd" clip-rule="evenodd" d="M13.6873 5.73644L19.2178 6.51726C19.4912 6.55587 19.6816 6.80882 19.643 7.08225C19.6044 7.35568 19.3514 7.54605 19.078 7.50744L13.5475 6.72662C13.2622 7.27471 12.6536 7.61033 12.007 7.51903C11.3603 7.42773 10.8684 6.93675 10.746 6.33109L5.21549 5.55026C4.94206 5.51165 4.7517 5.2587 4.7903 4.98527C4.82891 4.71184 5.08186 4.52147 5.35529 4.56008L10.8858 5.34091C11.1711 4.79282 11.7797 4.45719 12.4264 4.54849C13.073 4.63979 13.5649 5.13077 13.6873 5.73644Z" fill="#8A8A8A"/>
<path fill-rule="evenodd" clip-rule="evenodd" d="M1.53518 13L5 7.80281L8.46482 13H1.53518ZM1.01805 14C1.00609 14.0735 1 14.1481 1 14.2232C1 16.3091 2.69095 18 4.77684 18H5.22316C7.30905 18 9 16.3091 9 14.2232C9 14.1481 8.99391 14.0735 8.98195 14H1.01805ZM0.401135 12.8983L4.39907 6.90142C4.68495 6.47261 5.31505 6.47261 5.60093 6.90142L9.59887 12.8983C9.86043 13.2907 10 13.7517 10 14.2232C10 16.8614 7.86133 19 5.22316 19H4.77684C2.13867 19 0 16.8614 0 14.2232C0 13.7517 0.139575 13.2907 0.401135 12.8983Z" fill="#8A8A8A"/>
<path fill-rule="evenodd" clip-rule="evenodd" d="M15.5352 15L19 9.80281L22.4648 15H15.5352ZM15.018 16C15.0061 16.0735 15 16.1481 15 16.2232C15 18.3091 16.691 20 18.7768 20H19.2232C21.309 20 23 18.3091 23 16.2232C23 16.1481 22.9939 16.0735 22.9819 16H15.018ZM14.4011 14.8983L18.3991 8.90142C18.6849 8.47261 19.3151 8.47261 19.6009 8.90142L23.5989 14.8983C23.8604 15.2907 24 15.7517 24 16.2232C24 18.8614 21.8613 21 19.2232 21H18.7768C16.1387 21 14 18.8614 14 16.2232C14 15.7517 14.1396 15.2907 14.4011 14.8983Z" fill="#8A8A8A"/>
</svg>
