<svg width="30" height="30" viewBox="0 0 30 30" fill="none" xmlns="http://www.w3.org/2000/svg">
<g clip-path="url(#clip0_646:134780)">
<path d="M15.9375 4.6875C20.1819 6.22885 22.9399 13.5079 24.1816 16.209C25.7397 20.1295 23.5561 23.5195 20.8532 25.6026C18.1502 27.6857 7.52569 30.0353 3.28125 20.625C-0.963194 11.2148 10.632 2.76081 15.9375 4.6875Z" fill="#E2A977" fill-opacity="0.15"/>
<path d="M27.8999 16.8127L27.123 13.7052C27.3354 13.6601 27.4948 13.4716 27.4948 13.2459V12.7448C27.4948 11.657 26.6097 10.772 25.5219 10.772H21.9833V9.73857C21.9833 9.20326 21.5479 8.76779 21.0125 8.76779H14.4328L18.4312 7.16841C18.6721 7.07209 18.7893 6.79869 18.6929 6.55781C18.5966 6.31699 18.3234 6.19974 18.0823 6.29613L14.8085 7.60564C15.8061 6.96556 16.7931 6.26109 17.1688 5.76843C17.9004 4.80931 17.7151 3.43388 16.756 2.70234C15.7969 1.97074 14.4214 2.15607 13.6899 3.11519C13.1554 3.81609 12.4502 5.78548 11.9937 7.17328C11.5373 5.7856 10.8321 3.81609 10.2976 3.11519C9.56607 2.15607 8.19059 1.97086 7.23146 2.70234C6.27234 3.43382 6.08713 4.80925 6.81861 5.76843C7.19438 6.26115 8.18133 6.96556 9.179 7.60564L5.90514 6.29613C5.66414 6.19962 5.39086 6.31693 5.29453 6.55781C5.19814 6.79869 5.31533 7.07209 5.55621 7.16841L9.55465 8.76779H2.97492C2.43961 8.76779 2.00414 9.20326 2.00414 9.73857V18.2563C2.00414 18.5157 2.21443 18.7261 2.47389 18.7261C2.73328 18.7261 2.94363 18.5158 2.94363 18.2563V9.73857C2.94363 9.72128 2.95764 9.70728 2.97492 9.70728H21.0125C21.0298 9.70728 21.0438 9.72128 21.0438 9.73857V18.2565C21.0438 18.5159 21.2541 18.7262 21.5135 18.7262C21.7729 18.7262 21.9833 18.5159 21.9833 18.2565V17.724H27.5242C27.5248 17.724 27.5252 17.7241 27.5257 17.7241C27.5262 17.7241 27.5267 17.724 27.5272 17.724C28.209 17.7245 28.7879 18.1721 28.9867 18.7887H27.5261C27.2667 18.7887 27.0563 18.999 27.0563 19.2585V20.2605C27.0563 21.0721 27.7165 21.7324 28.5281 21.7324H29.0605V23.7991H27.8323C27.4288 22.6342 26.3213 21.7949 25.0208 21.7949C23.7203 21.7949 22.6128 22.6341 22.2094 23.7991H21.9832V20.2605C21.9832 20.0011 21.7729 19.7907 21.5135 19.7907C21.2541 19.7907 21.0437 20.001 21.0437 20.2605V23.7991H11.2979C10.8944 22.6341 9.78691 21.7949 8.48643 21.7949C7.18594 21.7949 6.0784 22.6341 5.67498 23.7991H2.97492C2.95764 23.7991 2.94363 23.7851 2.94363 23.7678V22.7344H4.97912C5.23852 22.7344 5.44887 22.5241 5.44887 22.2646C5.44887 22.0052 5.23857 21.7949 4.97912 21.7949H0.469746C0.210352 21.7949 0 22.0052 0 22.2646C0 22.5241 0.210293 22.7344 0.469746 22.7344H2.0042V23.7678C2.0042 24.3031 2.43967 24.7386 2.97498 24.7386H5.51232C5.51221 24.749 5.5115 24.7594 5.5115 24.7699C5.5115 26.4102 6.84609 27.7448 8.48643 27.7448C10.1268 27.7448 11.4613 26.4102 11.4613 24.7699C11.4613 24.7593 11.4606 24.749 11.4605 24.7386H22.0467C22.0465 24.749 22.0458 24.7594 22.0458 24.7699C22.0458 26.4102 23.3804 27.7448 25.0208 27.7448C26.6611 27.7448 27.9957 26.4102 27.9957 24.7699C27.9957 24.7593 27.995 24.749 27.9949 24.7386H29.5302C29.7896 24.7386 29.9999 24.5283 29.9999 24.2688V19.2584C30 18.0213 29.0873 16.9934 27.8999 16.8127ZM10.1309 7.09324C8.27795 5.94181 7.72834 5.41207 7.56562 5.19867C7.14826 4.65146 7.25397 3.86671 7.80123 3.44935C8.02682 3.27732 8.29272 3.19418 8.55668 3.19418C8.93297 3.19418 9.30527 3.36328 9.5506 3.68496C10.005 4.28074 10.7166 6.28599 11.1864 7.73097C10.8694 7.54429 10.5049 7.3258 10.1309 7.09324ZM12.8012 7.73091C13.271 6.28599 13.9826 4.2808 14.4369 3.6849C14.8543 3.13769 15.639 3.03205 16.1862 3.44935C16.7335 3.86671 16.8391 4.65146 16.4218 5.19867C16.2591 5.41201 15.7095 5.94181 13.8567 7.09318C13.4827 7.32568 13.1183 7.54423 12.8012 7.73091ZM21.9833 11.7114H25.5219C26.0917 11.7114 26.5553 12.175 26.5553 12.7448V12.7761H21.9833V11.7114ZM21.9833 16.7845V13.7156H26.1572L26.9245 16.7845H21.9833ZM8.48643 26.8053C7.36406 26.8053 6.45094 25.8922 6.45094 24.7699C6.45094 23.6475 7.36406 22.7344 8.48643 22.7344C9.60879 22.7344 10.5219 23.6475 10.5219 24.7699C10.5219 25.8922 9.60879 26.8053 8.48643 26.8053ZM25.0209 26.8053C23.8985 26.8053 22.9854 25.8922 22.9854 24.7699C22.9854 23.6475 23.8985 22.7344 25.0209 22.7344C26.1432 22.7344 27.0564 23.6475 27.0564 24.7699C27.0564 25.8922 26.1432 26.8053 25.0209 26.8053ZM29.0606 20.7928H28.5282C28.2346 20.7928 27.9958 20.554 27.9958 20.2604V19.728H29.0605V20.7928H29.0606Z" fill="#009B44"/>
<path d="M8.48641 23.7991C7.95109 23.7991 7.51562 24.2346 7.51562 24.7699C7.51562 25.3052 7.95109 25.7407 8.48641 25.7407C9.02172 25.7407 9.45719 25.3052 9.45719 24.7699C9.45719 24.2346 9.02172 23.7991 8.48641 23.7991Z" fill="#009B44"/>
<path d="M25.0208 23.7991C24.4855 23.7991 24.05 24.2346 24.05 24.7699C24.05 25.3052 24.4855 25.7407 25.0208 25.7407C25.5561 25.7407 25.9916 25.3052 25.9916 24.7699C25.9916 24.2346 25.5561 23.7991 25.0208 23.7991Z" fill="#009B44"/>
<path d="M19.5092 21.7949H12.4946C12.2353 21.7949 12.0249 22.0052 12.0249 22.2647C12.0249 22.5241 12.2352 22.7344 12.4946 22.7344H19.5092C19.7686 22.7344 19.979 22.5241 19.979 22.2647C19.979 22.0052 19.7687 21.7949 19.5092 21.7949Z" fill="#009B44"/>
<path d="M7.48423 19.7909H1.4717C1.2123 19.7909 1.00195 20.0012 1.00195 20.2606C1.00195 20.5201 1.21225 20.7304 1.4717 20.7304H7.48423C7.74362 20.7304 7.95398 20.5201 7.95398 20.2606C7.95398 20.0012 7.74362 19.7909 7.48423 19.7909Z" fill="#009B44"/>
<path d="M4.998 17.4375C4.959 17.4375 4.926 17.4255 4.899 17.4015C4.875 17.3745 4.863 17.3415 4.863 17.3025V14.058C4.863 14.019 4.875 13.9875 4.899 13.9635C4.926 13.9365 4.959 13.923 4.998 13.923H7.1625C7.1985 13.923 7.23 13.9365 7.257 13.9635C7.284 13.9875 7.2975 14.019 7.2975 14.058C7.2975 14.094 7.284 14.1255 7.257 14.1525C7.23 14.1795 7.1985 14.193 7.1625 14.193H5.133V15.543H6.6225C6.6615 15.543 6.693 15.5565 6.717 15.5835C6.744 15.6075 6.7575 15.639 6.7575 15.678C6.7575 15.717 6.744 15.75 6.717 15.777C6.693 15.804 6.6615 15.8175 6.6225 15.8175H5.133V17.3025C5.133 17.3415 5.1195 17.3745 5.0925 17.4015C5.0685 17.4255 5.037 17.4375 4.998 17.4375ZM8.085 17.4375C8.046 17.4375 8.013 17.4255 7.986 17.4015C7.962 17.3745 7.95 17.3415 7.95 17.3025V14.058C7.95 14.016 7.962 13.983 7.986 13.959C8.013 13.935 8.046 13.923 8.085 13.923H8.9445C9.1635 13.923 9.357 13.9695 9.525 14.0625C9.696 14.1525 9.8295 14.277 9.9255 14.436C10.0215 14.595 10.0695 14.7795 10.0695 14.9895C10.0695 15.1935 10.0215 15.375 9.9255 15.534C9.8295 15.693 9.696 15.8175 9.525 15.9075C9.357 15.9975 9.1635 16.0425 8.9445 16.0425H8.22V17.3025C8.22 17.3415 8.208 17.3745 8.184 17.4015C8.16 17.4255 8.127 17.4375 8.085 17.4375ZM9.975 17.4375C9.942 17.4375 9.9165 17.4315 9.8985 17.4195C9.8835 17.4045 9.8685 17.3865 9.8535 17.3655L8.958 15.9345L9.237 15.8715L10.0875 17.2305C10.1265 17.2905 10.134 17.34 10.11 17.379C10.089 17.418 10.044 17.4375 9.975 17.4375ZM8.22 15.7725H8.9445C9.1125 15.7725 9.2595 15.7395 9.3855 15.6735C9.5145 15.6045 9.615 15.5115 9.687 15.3945C9.762 15.2775 9.7995 15.1425 9.7995 14.9895C9.7995 14.8335 9.762 14.6955 9.687 14.5755C9.615 14.4555 9.5145 14.3625 9.3855 14.2965C9.2595 14.2275 9.1125 14.193 8.9445 14.193H8.22V15.7725ZM10.8228 17.4375C10.7838 17.4375 10.7508 17.4255 10.7238 17.4015C10.6998 17.3745 10.6878 17.3415 10.6878 17.3025V14.058C10.6878 14.019 10.6998 13.9875 10.7238 13.9635C10.7508 13.9365 10.7838 13.923 10.8228 13.923H12.9873C13.0233 13.923 13.0548 13.9365 13.0818 13.9635C13.1088 13.9875 13.1223 14.019 13.1223 14.058C13.1223 14.094 13.1088 14.1255 13.0818 14.1525C13.0548 14.1795 13.0233 14.193 12.9873 14.193H10.9578V15.543H12.4473C12.4863 15.543 12.5178 15.5565 12.5418 15.5835C12.5688 15.6075 12.5823 15.639 12.5823 15.678C12.5823 15.717 12.5688 15.75 12.5418 15.777C12.5178 15.804 12.4863 15.8175 12.4473 15.8175H10.9578V17.1675H12.9873C13.0233 17.1675 13.0548 17.181 13.0818 17.208C13.1088 17.235 13.1223 17.2665 13.1223 17.3025C13.1223 17.3415 13.1088 17.3745 13.0818 17.4015C13.0548 17.4255 13.0233 17.4375 12.9873 17.4375H10.8228ZM13.9078 17.4375C13.8688 17.4375 13.8358 17.4255 13.8088 17.4015C13.7848 17.3745 13.7728 17.3415 13.7728 17.3025V14.058C13.7728 14.019 13.7848 13.9875 13.8088 13.9635C13.8358 13.9365 13.8688 13.923 13.9078 13.923H16.0723C16.1083 13.923 16.1398 13.9365 16.1668 13.9635C16.1938 13.9875 16.2073 14.019 16.2073 14.058C16.2073 14.094 16.1938 14.1255 16.1668 14.1525C16.1398 14.1795 16.1083 14.193 16.0723 14.193H14.0428V15.543H15.5323C15.5713 15.543 15.6028 15.5565 15.6268 15.5835C15.6538 15.6075 15.6673 15.639 15.6673 15.678C15.6673 15.717 15.6538 15.75 15.6268 15.777C15.6028 15.804 15.5713 15.8175 15.5323 15.8175H14.0428V17.1675H16.0723C16.1083 17.1675 16.1398 17.181 16.1668 17.208C16.1938 17.235 16.2073 17.2665 16.2073 17.3025C16.2073 17.3415 16.1938 17.3745 16.1668 17.4015C16.1398 17.4255 16.1083 17.4375 16.0723 17.4375H13.9078Z" fill="#009B44"/>
</g>
<defs>
<clipPath id="clip0_646:134780">
<rect width="30" height="30" fill="white"/>
</clipPath>
</defs>
</svg>
