<svg width="22" height="17" viewBox="0 0 22 17" fill="none" xmlns="http://www.w3.org/2000/svg">
<path d="M20.5751 10.0051C20.4377 10.0051 20.3059 10.0597 20.2087 10.1569C20.1115 10.2541 20.057 10.3858 20.057 10.5233V15.9637H1.03627V10.5233C1.03627 10.3858 0.981678 10.2541 0.88451 10.1569C0.787341 10.0597 0.655551 10.0051 0.518134 10.0051C0.380716 10.0051 0.248927 10.0597 0.151758 10.1569C0.054589 10.2541 0 10.3858 0 10.5233V15.9637C0 16.2385 0.109178 16.5021 0.303516 16.6964C0.497854 16.8908 0.761432 16.9999 1.03627 16.9999H20.057C20.3318 16.9999 20.5954 16.8908 20.7897 16.6964C20.984 16.5021 21.0932 16.2385 21.0932 15.9637V10.5233C21.0932 10.3858 21.0386 10.2541 20.9415 10.1569C20.8443 10.0597 20.7125 10.0051 20.5751 10.0051Z" fill="#009B3E"/>
<path d="M10.5466 0C10.4092 0 10.2774 0.0545885 10.1802 0.151757C10.083 0.248926 10.0284 0.380716 10.0284 0.518134V11.6062L6.25903 7.82641C6.1618 7.72919 6.02994 7.67457 5.89245 7.67457C5.75495 7.67457 5.62309 7.72919 5.52587 7.82641C5.42864 7.92363 5.37402 8.0555 5.37402 8.19299C5.37402 8.33049 5.42864 8.46235 5.52587 8.55957L10.1891 13.2228C10.2372 13.2709 10.2943 13.3092 10.3572 13.3352C10.4201 13.3613 10.4876 13.3747 10.5556 13.3747C10.6237 13.3747 10.6912 13.3613 10.7541 13.3352C10.817 13.3092 10.8741 13.2709 10.9222 13.2228L15.5854 8.55957C15.6336 8.51143 15.6718 8.45428 15.6978 8.39138C15.7239 8.32848 15.7373 8.26107 15.7373 8.19299C15.7373 8.12491 15.7239 8.0575 15.6978 7.9946C15.6718 7.9317 15.6336 7.87455 15.5854 7.82641C15.5373 7.77827 15.4801 7.74008 15.4172 7.71403C15.3543 7.68798 15.2869 7.67457 15.2189 7.67457C15.1508 7.67457 15.0834 7.68798 15.0205 7.71403C14.9576 7.74008 14.9004 7.77827 14.8523 7.82641L11.0647 11.6062V0.518134C11.0647 0.380716 11.0101 0.248926 10.913 0.151757C10.8158 0.0545885 10.684 0 10.5466 0Z" fill="#009B3E"/>
</svg>
