<svg width="31" height="30" viewBox="0 0 31 30" fill="none" xmlns="http://www.w3.org/2000/svg">
<path d="M9.05035 11.75C11.4503 9.05 16.8003 8.125 19.1753 8C22.5503 8 24.4254 10.625 25.1754 13.25C25.9254 15.875 20.6753 22.625 12.4253 23C4.17535 23.375 6.05035 15.125 9.05035 11.75Z" fill="#E2A977" fill-opacity="0.15"/>
<path d="M5.23958 16.1198H4.25V15.625C4.25 9.07693 9.57693 3.75 16.125 3.75C19.2966 3.75 22.2792 4.985 24.5216 7.22838L26.009 8.69297L25.3153 9.39755L23.8249 7.93099C21.7666 5.87167 19.0324 4.73958 16.125 4.73958C10.1232 4.73958 5.23958 9.62318 5.23958 15.625V16.1198Z" fill="#009B3E"/>
<path d="M16.1248 27.5C12.9522 27.5 9.97062 26.265 7.72822 24.0216L6.30322 22.6194L6.99692 21.9138L8.42489 23.319C10.4832 25.3773 13.2174 26.5104 16.1248 26.5104C22.1267 26.5104 27.0103 21.6268 27.0103 15.625V15.1302H27.9998V15.625C27.9998 22.1731 22.6729 27.5 16.1248 27.5Z" fill="#009B3E"/>
<path d="M25.526 9.6875H20.0833V8.69792H25.0312V3.75H26.0208V9.19271L25.526 9.6875Z" fill="#009B3E"/>
<path d="M7.21883 27.5H6.22925V22.0573L6.72404 21.5625H12.1667V22.5521H7.21883V27.5Z" fill="#009B3E"/>
</svg>
