<svg width="18" height="20" viewBox="0 0 18 20" fill="none" xmlns="http://www.w3.org/2000/svg">
<path d="M2.20309 5.95419V17.4942C2.20309 18.1762 2.45319 18.8168 2.89011 19.2764C3.32501 19.7373 3.93025 19.9989 4.56366 20H13.4256C14.0592 19.9989 14.6644 19.7373 15.0992 19.2764C15.5361 18.8168 15.7862 18.1762 15.7862 17.4942V5.95419C16.6547 5.72366 17.2175 4.8846 17.1013 3.99339C16.9849 3.10236 16.2258 2.43583 15.3271 2.43565H12.929V1.85017C12.9318 1.35782 12.7371 0.885049 12.3886 0.537238C12.04 0.18961 11.5665 -0.00396362 11.0742 6.15416e-05H6.91509C6.42274 -0.00396362 5.94923 0.18961 5.60069 0.537238C5.25215 0.885049 5.05748 1.35782 5.06022 1.85017V2.43565H2.66214C1.76343 2.43583 1.00432 3.10236 0.887955 3.99339C0.771774 4.8846 1.33457 5.72366 2.20309 5.95419ZM13.4256 19.0632H4.56366C3.76284 19.0632 3.13985 18.3753 3.13985 17.4942V5.99536H14.8494V17.4942C14.8494 18.3753 14.2264 19.0632 13.4256 19.0632ZM5.99698 1.85017C5.99387 1.60628 6.08975 1.37154 6.26283 1.19938C6.43573 1.02721 6.67102 0.932619 6.91509 0.936827H11.0742C11.3183 0.932619 11.5535 1.02721 11.7264 1.19938C11.8995 1.37136 11.9954 1.60628 11.9923 1.85017V2.43565H5.99698V1.85017ZM2.66214 3.37242H15.3271C15.7928 3.37242 16.1702 3.74987 16.1702 4.21551C16.1702 4.68114 15.7928 5.05859 15.3271 5.05859H2.66214C2.1965 5.05859 1.81905 4.68114 1.81905 4.21551C1.81905 3.74987 2.1965 3.37242 2.66214 3.37242Z" fill="#363636"/>
</svg>
