<svg width="35" height="35" viewBox="0 0 35 35" fill="none" xmlns="http://www.w3.org/2000/svg">
<path d="M29.283 5.01839C22.5924 -1.67285 11.7069 -1.67285 5.01763 5.01678C-1.67297 11.7064 -1.67233 22.5922 5.01827 29.2831C11.7069 35.9725 22.5924 35.9725 29.2824 29.2818C35.9723 22.5922 35.972 11.7071 29.283 5.01839ZM27.4108 27.411C21.7532 33.0686 12.5471 33.0692 6.88917 27.4116C1.23023 21.753 1.23088 12.546 6.88917 6.88832C12.5468 1.231 21.7525 1.23035 27.4115 6.88897C33.0691 12.5466 33.0685 21.7536 27.4108 27.411ZM24.9077 20.5667C25.1205 20.0748 24.8941 19.504 24.4025 19.2915C23.9106 19.0781 23.3398 19.3051 23.127 19.7967C22.1914 21.96 19.9803 23.358 17.493 23.358C14.9484 23.358 12.7237 21.9613 11.8263 19.7993C11.6714 19.4261 11.3101 19.2007 10.9301 19.2007C10.8059 19.2007 10.6801 19.2246 10.5582 19.2751C10.0634 19.4807 9.82892 20.0486 10.0343 20.5431C11.2341 23.4318 14.1622 25.2981 17.493 25.2981C20.7542 25.2981 23.6648 23.4412 24.9077 20.5667ZM10.75 12.5062C10.75 11.3989 11.6481 10.5008 12.7554 10.5008C13.8624 10.5008 14.7605 11.3985 14.7605 12.5062C14.7605 13.6142 13.8624 14.5119 12.7554 14.5119C11.6481 14.5119 10.75 13.6142 10.75 12.5062ZM19.8432 12.5062C19.8432 11.3989 20.7419 10.5008 21.8492 10.5008C22.9563 10.5008 23.8543 11.3985 23.8543 12.5062C23.8543 13.6142 22.9566 14.5119 21.8492 14.5119C20.7419 14.5119 19.8432 13.6142 19.8432 12.5062Z" fill="#329138"/>
</svg>
