<svg width="33" height="25" viewBox="0 0 33 25" fill="none" xmlns="http://www.w3.org/2000/svg">
<path d="M6.2494 24.7832V23.1347C6.2494 22.5028 5.8663 22.0906 5.2096 22.0906C4.8812 22.0906 4.5255 22.2005 4.2792 22.5577C4.0877 22.2555 3.814 22.0906 3.4036 22.0906C3.1299 22.0906 2.8563 22.1731 2.63739 22.4753V22.1456H2.06274V24.7832H2.63739V23.327C2.63739 22.8599 2.88366 22.6401 3.2668 22.6401C3.6499 22.6401 3.8414 22.8874 3.8414 23.327V24.7832H4.416V23.327C4.416 22.8599 4.6897 22.6401 5.0454 22.6401C5.4285 22.6401 5.6201 22.8874 5.6201 23.327V24.7832H6.2494ZM14.7596 22.1456H13.8292V21.3488H13.2546V22.1456H12.7347V22.6676H13.2546V23.8765C13.2546 24.4809 13.5009 24.8381 14.1576 24.8381C14.4039 24.8381 14.6775 24.7557 14.8691 24.6458L14.7049 24.1512C14.5407 24.2611 14.3492 24.2886 14.2123 24.2886C13.9387 24.2886 13.8292 24.1238 13.8292 23.849V22.6676H14.7596V22.1456ZM19.6304 22.0906C19.302 22.0906 19.0831 22.2555 18.9463 22.4753V22.1456H18.3717V24.7832H18.9463V23.2995C18.9463 22.8599 19.1378 22.6127 19.4936 22.6127C19.603 22.6127 19.7398 22.6401 19.8493 22.6676L20.0135 22.1181C19.904 22.0906 19.7398 22.0906 19.6304 22.0906ZM12.2695 22.3654C11.9959 22.1731 11.6128 22.0906 11.2023 22.0906C10.5456 22.0906 10.1077 22.4203 10.1077 22.9424C10.1077 23.382 10.4361 23.6292 11.0108 23.7117L11.2844 23.7391C11.5854 23.7941 11.7496 23.8765 11.7496 24.0139C11.7496 24.2062 11.5307 24.3436 11.1476 24.3436C10.7645 24.3436 10.4635 24.2062 10.2719 24.0688L9.9983 24.5084C10.2993 24.7282 10.7097 24.8381 11.1202 24.8381C11.8864 24.8381 12.3242 24.4809 12.3242 23.9864C12.3242 23.5193 11.9685 23.2721 11.4212 23.1896L11.1476 23.1622C10.9013 23.1347 10.7097 23.0797 10.7097 22.9149C10.7097 22.7226 10.9013 22.6127 11.2023 22.6127C11.5307 22.6127 11.859 22.75 12.0232 22.8325L12.2695 22.3654ZM27.5386 22.0906C27.2102 22.0906 26.9913 22.2555 26.8545 22.4753V22.1456H26.2798V24.7832H26.8545V23.2995C26.8545 22.8599 27.046 22.6127 27.4018 22.6127C27.5112 22.6127 27.648 22.6401 27.7575 22.6676L27.9217 22.1181C27.8122 22.0906 27.648 22.0906 27.5386 22.0906ZM20.205 23.4644C20.205 24.2611 20.7523 24.8381 21.6006 24.8381C21.9837 24.8381 22.2573 24.7557 22.531 24.5359L22.2573 24.0688C22.0384 24.2337 21.8195 24.3161 21.5732 24.3161C21.108 24.3161 20.7797 23.9864 20.7797 23.4644C20.7797 22.9698 21.108 22.6401 21.5732 22.6127C21.8195 22.6127 22.0384 22.6951 22.2573 22.8599L22.531 22.3929C22.2573 22.1731 21.9837 22.0906 21.6006 22.0906C20.7523 22.0906 20.205 22.6676 20.205 23.4644ZM25.5136 23.4644V22.1456H24.939V22.4753C24.7474 22.228 24.4738 22.0906 24.1181 22.0906C23.3793 22.0906 22.8046 22.6676 22.8046 23.4644C22.8046 24.2611 23.3793 24.8381 24.1181 24.8381C24.5012 24.8381 24.7748 24.7007 24.939 24.4535V24.7832H25.5136V23.4644ZM23.4066 23.4644C23.4066 22.9973 23.7076 22.6127 24.2002 22.6127C24.6654 22.6127 24.9937 22.9698 24.9937 23.4644C24.9937 23.9314 24.6654 24.3161 24.2002 24.3161C23.7076 24.2886 23.4066 23.9314 23.4066 23.4644ZM16.5383 22.0906C15.7721 22.0906 15.2248 22.6401 15.2248 23.4644C15.2248 24.2886 15.7721 24.8381 16.5656 24.8381C16.9487 24.8381 17.3318 24.7282 17.6328 24.4809L17.3592 24.0688C17.1403 24.2337 16.8666 24.3436 16.593 24.3436C16.2373 24.3436 15.8815 24.1787 15.7994 23.7117H17.7423V23.4919C17.7696 22.6401 17.2771 22.0906 16.5383 22.0906ZM16.5383 22.5852C16.894 22.5852 17.1403 22.805 17.195 23.2171H15.8268C15.8815 22.8599 16.1278 22.5852 16.5383 22.5852ZM30.7949 23.4644V21.1016H30.2202V22.4753C30.0287 22.228 29.7551 22.0906 29.3993 22.0906C28.6605 22.0906 28.0858 22.6676 28.0858 23.4644C28.0858 24.2611 28.6605 24.8381 29.3993 24.8381C29.7824 24.8381 30.0561 24.7007 30.2202 24.4535V24.7832H30.7949V23.4644ZM28.6879 23.4644C28.6879 22.9973 28.9889 22.6127 29.4814 22.6127C29.9466 22.6127 30.275 22.9698 30.275 23.4644C30.275 23.9314 29.9466 24.3161 29.4814 24.3161C28.9889 24.2886 28.6879 23.9314 28.6879 23.4644ZM9.4784 23.4644V22.1456H8.9037V22.4753C8.7122 22.228 8.4385 22.0906 8.0828 22.0906C7.344 22.0906 6.7693 22.6676 6.7693 23.4644C6.7693 24.2611 7.344 24.8381 8.0828 24.8381C8.4659 24.8381 8.7395 24.7007 8.9037 24.4535V24.7832H9.4784V23.4644ZM7.344 23.4644C7.344 22.9973 7.645 22.6127 8.1375 22.6127C8.6027 22.6127 8.9311 22.9698 8.9311 23.4644C8.9311 23.9314 8.6027 24.3161 8.1375 24.3161C7.645 24.2886 7.344 23.9314 7.344 23.4644Z" fill="black"/>
<path d="M20.6977 2.11523H12.0781V17.6659H20.6977V2.11523Z" fill="#FF5F00"/>
<path d="M12.6252 9.8909C12.6252 6.7313 14.1028 3.92887 16.374 2.11555C14.7048 0.79676 12.5978 0 10.2992 0C4.85382 0 0.448242 4.42341 0.448242 9.8909C0.448242 15.3583 4.85382 19.7817 10.2992 19.7817C12.5978 19.7817 14.7048 18.985 16.374 17.6662C14.1028 15.8803 12.6252 13.0504 12.6252 9.8909Z" fill="#EB001B"/>
<path d="M32.3274 9.8909C32.3274 15.3583 27.9218 19.7817 22.4764 19.7817C20.1778 19.7817 18.0708 18.985 16.4016 17.6662C18.7001 15.8529 20.1504 13.0504 20.1504 9.8909C20.1504 6.7313 18.6728 3.92887 16.4016 2.11555C18.0708 0.79676 20.1778 0 22.4764 0C27.9218 0 32.3274 4.45089 32.3274 9.8909Z" fill="#F79E1B"/>
</svg>
