<svg width="64" height="31" viewBox="0 0 64 31" fill="none" xmlns="http://www.w3.org/2000/svg">
<path d="M5.53215 10.361H8.12166C9.35476 10.361 10.2684 10.0546 10.8625 9.44184C11.4566 8.8291 11.7537 8.01582 11.7537 7.00201C11.7537 6.02161 11.4566 5.25847 10.8625 4.71257C10.2796 4.16667 9.47247 3.89372 8.44115 3.89372C7.51072 3.89372 6.73162 4.14996 6.10386 4.66243C5.4761 5.16377 5.16222 5.82108 5.16222 6.63436H0.302671C0.302671 5.3643 0.644576 4.22794 1.32839 3.22527C2.02341 2.21145 2.98747 1.42045 4.22057 0.852273C5.46489 0.284091 6.83251 0 8.32344 0C10.913 0 12.942 0.618316 14.4105 1.85495C15.879 3.08044 16.6133 4.77384 16.6133 6.93516C16.6133 8.04924 16.2713 9.0742 15.5875 10.01C14.9037 10.9459 14.0069 11.6644 12.8971 12.1658C14.276 12.656 15.3017 13.3913 15.9743 14.3717C16.6581 15.352 17 16.5107 17 17.8476C17 20.0089 16.2041 21.7413 14.6123 23.0448C13.0317 24.3483 10.9354 25 8.32344 25C5.87966 25 3.87867 24.3594 2.32047 23.0782C0.773492 21.797 0 20.1036 0 17.998H4.85954C4.85954 18.9115 5.20145 19.658 5.88526 20.2373C6.58028 20.8166 7.43225 21.1063 8.44115 21.1063C9.59578 21.1063 10.4982 20.8055 11.1484 20.2039C11.8098 19.5911 12.1405 18.7834 12.1405 17.7807C12.1405 15.352 10.7953 14.1377 8.10485 14.1377H5.53215V10.361Z" fill="#149721"/>
<path d="M28.8271 3L35.0081 19.6923L41.1744 3H45.9868V24.7778H42.2781V17.5983L42.6461 7.99573L36.3179 24.7778H33.6542L27.3407 8.01068L27.7086 17.5983V24.7778H24V3H28.8271Z" fill="#5E5E5E"/>
<path d="M64 16.8504C64 19.3533 63.4408 21.3526 62.3223 22.8483C61.2038 24.334 59.7027 25.0769 57.819 25.0769C56.0726 25.0769 54.6745 24.4936 53.6247 23.3269V31H50.0486V8.59402H53.3451L53.4923 10.2393C54.5421 8.94302 55.9696 8.29487 57.7748 8.29487C59.7174 8.29487 61.2382 9.03276 62.337 10.5085C63.4457 11.9744 64 14.0135 64 16.6261V16.8504ZM60.4386 16.5363C60.4386 14.9209 60.1197 13.6396 59.482 12.6923C58.8541 11.745 57.9514 11.2714 56.7741 11.2714C55.3122 11.2714 54.2624 11.8846 53.6247 13.1111V20.2906C54.2723 21.547 55.3319 22.1752 56.8035 22.1752C57.9416 22.1752 58.8295 21.7115 59.4673 20.7842C60.1148 19.8469 60.4386 18.4309 60.4386 16.5363Z" fill="#5E5E5E"/>
</svg>
