<svg width="44" height="18" viewBox="0 0 44 18" fill="none" xmlns="http://www.w3.org/2000/svg">
<path d="M8.04408 2.32065C7.52846 2.92864 6.70346 3.4082 5.87846 3.3397C5.77533 2.5176 6.17924 1.64415 6.65189 1.10466C7.16752 0.47954 8.06988 0.03425 8.80038 0C8.88628 0.85633 8.55108 1.69553 8.04408 2.32065ZM8.79178 3.5024C7.59721 3.4339 6.57455 4.1789 6.00736 4.1789C5.43158 4.1789 4.56361 3.5366 3.6183 3.5538C2.38939 3.5709 1.24643 4.2645 0.619078 5.3692C-0.669982 7.5785 0.283928 10.8497 1.53002 12.648C2.14018 13.5385 2.87064 14.5147 3.83314 14.4805C4.74408 14.4462 5.10502 13.8896 6.20502 13.8896C7.31361 13.8896 7.63158 14.4805 8.59408 14.4634C9.59098 14.4462 10.2183 13.5728 10.8285 12.6822C11.5246 11.6717 11.8082 10.687 11.8254 10.6356C11.8082 10.6185 9.90038 9.8906 9.88318 7.6984C9.86598 5.8658 11.3871 4.9924 11.4558 4.941C10.5964 3.6736 9.25578 3.5366 8.79178 3.5024ZM15.6925 1.01903V14.3692H17.7722V9.8049H20.6511C23.2808 9.8049 25.1285 8.0067 25.1285 5.4034C25.1285 2.80019 23.3152 1.01903 20.7199 1.01903H15.6925ZM17.7722 2.76594H20.1699C21.9746 2.76594 23.0058 3.725 23.0058 5.412C23.0058 7.099 21.9746 8.0666 20.1613 8.0666H17.7722V2.76594ZM28.9269 14.4719C30.2332 14.4719 31.4449 13.8126 31.9949 12.7678H32.0378V14.3692H33.9629V7.7241C33.9629 5.7973 32.416 4.5557 30.0355 4.5557C27.8269 4.5557 26.1941 5.8145 26.1339 7.5442H28.0074C28.1621 6.7222 28.9269 6.1827 29.9753 6.1827C31.2472 6.1827 31.9605 6.7735 31.9605 7.8611V8.5975L29.3652 8.7517C26.9504 8.8972 25.6441 9.882 25.6441 11.5947C25.6441 13.3245 26.9933 14.4719 28.9269 14.4719ZM29.4855 12.8877C28.3769 12.8877 27.6722 12.3568 27.6722 11.5433C27.6722 10.7041 28.3511 10.216 29.6488 10.1389L31.9605 9.9933V10.7469C31.9605 11.9971 30.8949 12.8877 29.4855 12.8877ZM36.5324 18C38.5605 18 39.5144 17.2293 40.348 14.8915L44.0004 4.6841H41.8863L39.4371 12.5709H39.3941L36.9449 4.6841H34.7707L38.2941 14.4034L38.105 14.9943C37.7871 15.9962 37.2714 16.3815 36.3519 16.3815C36.1886 16.3815 35.8707 16.3644 35.7418 16.3473V17.9486C35.8621 17.9829 36.3777 18 36.5324 18Z" fill="black"/>
</svg>
