<svg width="45" height="18" viewBox="0 0 45 18" fill="none" xmlns="http://www.w3.org/2000/svg">
<path d="M20.8109 8.5492V13.679H19.186V1.01062H23.4955C24.0099 0.999857 24.5213 1.09123 25.0003 1.27946C25.4792 1.4677 25.9162 1.74907 26.286 2.10734C26.6596 2.44385 26.9569 2.85655 27.1579 3.3177C27.359 3.7789 27.4592 4.2778 27.4517 4.7809C27.4624 5.2867 27.3638 5.7889 27.1626 6.253C26.9614 6.7171 26.6624 7.1321 26.286 7.4696C25.5325 8.1893 24.6023 8.5488 23.4955 8.5482H20.8109V8.5492ZM20.8109 2.57028V6.9925H23.5358C23.8346 7.0014 24.1319 6.9477 24.4087 6.8349C24.6855 6.7222 24.9358 6.5527 25.1436 6.3375C25.3502 6.1363 25.5145 5.8957 25.6266 5.6298C25.7388 5.3639 25.7966 5.0781 25.7966 4.7895C25.7966 4.5008 25.7388 4.2151 25.6266 3.9492C25.5145 3.6833 25.3502 3.4427 25.1436 3.2415C24.9384 3.0217 24.689 2.84815 24.4118 2.73226C24.1347 2.61638 23.8361 2.56082 23.5358 2.56927H20.8109V2.57028Z" fill="#5F6368"/>
<path d="M31.1958 4.72849C32.3968 4.72849 33.3448 5.04998 34.0399 5.69278C34.7349 6.33568 35.0821 7.21708 35.0814 8.33708V13.6792H33.5272V12.4763H33.4565C32.7837 13.4669 31.8888 13.9622 30.7719 13.9622C29.8185 13.9622 29.0209 13.6792 28.379 13.1131C28.071 12.8533 27.8247 12.5279 27.6581 12.1607C27.4916 11.7935 27.4089 11.3937 27.4162 10.9904C27.4162 10.0935 27.7546 9.38019 28.4315 8.85058C29.1084 8.32088 30.012 8.05538 31.1423 8.05408C32.1072 8.05408 32.9018 8.23088 33.5262 8.58468V8.21268C33.528 7.93778 33.4687 7.66588 33.3526 7.41678C33.2366 7.16768 33.0666 6.94748 32.855 6.77238C32.4253 6.38408 31.8653 6.17218 31.2866 6.17898C30.379 6.17898 29.6608 6.56238 29.1319 7.32928L27.7008 6.42668C28.488 5.29458 29.653 4.72849 31.1958 4.72849ZM29.0936 11.0258C29.0925 11.2329 29.1408 11.4373 29.2346 11.6219C29.3283 11.8065 29.4647 11.966 29.6325 12.0871C29.9919 12.3703 30.4379 12.5203 30.8951 12.5117C31.5807 12.5105 32.238 12.2372 32.7228 11.7516C33.2611 11.2441 33.5302 10.6488 33.5302 9.96548C33.0236 9.56118 32.3171 9.35898 31.4108 9.35898C30.7507 9.35898 30.2004 9.51838 29.7597 9.83708C29.3146 10.1606 29.0936 10.5538 29.0936 11.0258Z" fill="#5F6368"/>
<path d="M44.003 5.01169L38.5773 17.5002H36.8999L38.9134 13.1305L35.3457 5.01169H37.1119L39.6905 11.2383H39.7258L42.2338 5.01169H44.003Z" fill="#5F6368"/>
<path d="M14.2445 7.44269C14.2451 6.94679 14.2033 6.45169 14.1194 5.96289H7.2666V8.76579H11.1915C11.1112 9.21349 10.9412 9.64029 10.6918 10.0204C10.4424 10.4005 10.1187 10.726 9.7403 10.9775V12.7969H12.0827C13.4543 11.5304 14.2445 9.65739 14.2445 7.44269Z" fill="#4285F4"/>
<path d="M7.26663 14.5548C9.22762 14.5548 10.8787 13.9099 12.0827 12.798L9.74032 10.9786C9.08832 11.4213 8.24862 11.674 7.26663 11.674C5.37127 11.674 3.76254 10.3943 3.18727 8.66989H0.77417V10.545C1.37897 11.7503 2.30638 12.7636 3.45284 13.4717C4.59931 14.1797 5.91971 14.5547 7.26663 14.5548Z" fill="#34A853"/>
<path d="M3.18735 8.6706C2.88322 7.767 2.88322 6.7884 3.18735 5.8848V4.0098H0.774248C0.265458 5.0238 0.000488281 6.1429 0.000488281 7.2777C0.000488281 8.4125 0.265458 9.5316 0.774248 10.5456L3.18735 8.6706Z" fill="#FBBC04"/>
<path d="M7.26663 2.88126C8.30292 2.86431 9.30422 3.2564 10.0541 3.9729L12.1281 1.89573C10.813 0.658587 9.07082 -0.0206323 7.26663 0.000477727C5.91971 0.000537727 4.59931 0.375537 3.45284 1.08361C2.30638 1.79169 1.37897 2.80497 0.77417 4.0103L3.18727 5.8854C3.76254 4.1609 5.37127 2.88126 7.26663 2.88126Z" fill="#EA4335"/>
</svg>
