<svg width="61" height="66" viewBox="0 0 61 66" fill="none" xmlns="http://www.w3.org/2000/svg">
<path d="M0.104518 41.0917C0.363832 38.8365 0.969135 36.6348 1.89912 34.5641C2.91969 32.3002 4.27353 30.2018 5.9156 28.3389C7.20069 26.8523 8.63957 25.506 10.2082 24.3224C12.256 22.7921 14.4808 21.5142 16.8344 20.5163C18.9503 19.6206 21.1532 18.9465 23.408 18.5047C24.924 18.19 26.4627 17.9965 28.0095 17.9263C28.3645 17.9263 28.4368 17.7685 28.4039 17.4595C28.3861 17.1706 28.3861 16.8808 28.4039 16.5918C28.3867 16.3469 28.4197 16.101 28.5009 15.8693C28.5821 15.6376 28.7099 15.4249 28.8763 15.2444C29.0427 15.0638 29.2443 14.9192 29.4686 14.8194C29.693 14.7196 29.9354 14.6668 30.1809 14.6641C30.4264 14.6614 30.6699 14.7089 30.8964 14.8038C31.1229 14.8986 31.3276 15.0388 31.4979 15.2156C31.6683 15.3925 31.8006 15.6023 31.8869 15.8321C31.9732 16.062 32.0116 16.3071 31.9997 16.5524C32.0187 16.872 32.0187 17.1925 31.9997 17.5121C31.9997 17.7882 32.0523 17.9 32.3547 17.9197C33.9697 18.0282 35.5752 18.2478 37.16 18.577C38.9317 18.9142 40.6697 19.4092 42.3532 20.0561C44.4392 20.856 46.4389 21.8647 48.322 23.0668C50.0635 24.1899 51.6829 25.492 53.1536 26.9518C54.7958 28.5935 56.2128 30.4459 57.3673 32.4605C58.9518 35.2412 59.958 38.3134 60.3254 41.4927C60.3254 41.5518 60.3254 41.6176 60.3254 41.749C59.558 41.242 58.724 40.8438 57.8472 40.5658C56.0288 40.0281 54.1143 39.8979 52.2399 40.1845C50.7402 40.3556 49.3039 40.8855 48.0525 41.7293C47.381 42.1687 46.8387 42.7791 46.4814 43.4976C46.2973 43.8855 46.0935 43.8986 45.9226 43.5568C45.1206 41.9331 43.6876 41.1246 42.0705 40.6118C39.279 39.6899 36.251 39.7877 33.5248 40.8879C32.1755 41.3257 31.0474 42.2677 30.376 43.5174C30.2248 43.8197 30.0276 43.8855 29.8699 43.5568C28.9627 41.7096 27.2864 40.9273 25.459 40.4146C23.7237 39.9412 21.9048 39.8604 20.1343 40.178C18.4718 40.3827 16.8967 41.0373 15.5788 42.0712C15.0988 42.4808 14.7169 42.993 14.4613 43.5699C14.3233 43.8658 14.1129 43.892 13.9749 43.6094C13.094 41.7951 11.4637 40.9799 9.66913 40.4803C7.82979 39.9638 5.89827 39.865 4.01582 40.1911C2.72098 40.3934 1.47627 40.8395 0.347742 41.5058C-0.0795433 41.5518 0.0782235 41.2823 0.104518 41.0917Z" fill="#5E5E5E"/>
<path d="M48.427 52.0828H43.8255C43.247 52.0828 42.6685 52.0828 42.0901 52.0828C42.0143 52.0958 41.9366 52.0932 41.8618 52.0752C41.787 52.0571 41.7167 52.024 41.6552 51.9779C41.5936 51.9317 41.5422 51.8735 41.5039 51.8068C41.4657 51.74 41.4414 51.6662 41.4327 51.5898C41.2975 50.9925 41.2975 50.3727 41.4327 49.7754C41.4431 49.7023 41.468 49.632 41.5058 49.5686C41.5435 49.5051 41.5935 49.4498 41.6528 49.4058C41.7121 49.3618 41.7795 49.33 41.8512 49.3122C41.9229 49.2944 41.9973 49.291 42.0703 49.3021H51.1354C51.2286 49.2899 51.3233 49.2978 51.4132 49.3253C51.5031 49.3529 51.5861 49.3993 51.6565 49.4616C51.7269 49.5239 51.7831 49.6006 51.8214 49.6865C51.8596 49.7724 51.879 49.8655 51.8782 49.9595C52.0291 50.7997 51.9403 51.6655 51.6218 52.4575C49.9258 56.4016 48.2101 60.3458 46.5075 64.336C46.451 64.5146 46.3427 64.6724 46.1964 64.7894C46.0502 64.9064 45.8725 64.9774 45.6858 64.9934C44.888 65.0932 44.0799 65.0777 43.2865 64.9474C42.8263 64.8619 42.754 64.6581 42.9906 64.1322L46.8888 55.4813L48.427 52.0828Z" fill="#149721"/>
<path d="M13.1069 57.1313C13.1069 59.4781 13.1069 61.8183 13.1069 64.1651C13.1212 64.2593 13.1149 64.3555 13.0883 64.447C13.0617 64.5385 13.0156 64.6232 12.953 64.6951C12.8905 64.767 12.8131 64.8244 12.7262 64.8635C12.6392 64.9025 12.5448 64.9221 12.4496 64.9211C11.7685 65.0356 11.0731 65.0356 10.392 64.9211C10.3161 64.9162 10.242 64.896 10.1743 64.8615C10.1065 64.8271 10.0464 64.7791 9.99782 64.7207C9.94921 64.6622 9.91303 64.5945 9.89152 64.5215C9.87001 64.4486 9.8636 64.372 9.8727 64.2966C9.86393 59.5153 9.85955 54.7363 9.85955 49.9595C9.84949 49.8795 9.85607 49.7983 9.87888 49.721C9.90168 49.6437 9.94021 49.5719 9.99206 49.5102C10.0439 49.4485 10.1079 49.3981 10.1802 49.3623C10.2524 49.3265 10.3312 49.306 10.4117 49.3021C11.1105 49.1885 11.8231 49.1885 12.5219 49.3021C12.936 49.3679 13.1003 49.598 13.0938 50.0384C13.0938 52.4115 13.1069 54.7714 13.1069 57.1313Z" fill="#149721"/>
<path d="M32.407 2.85953C32.732 3.39378 33.0113 3.95453 33.2419 4.5358C33.8609 5.77543 34.3946 7.05588 34.8393 8.36822C35.0072 8.72556 35.0925 9.11615 35.0889 9.51097C35.0852 9.9058 34.9927 10.2947 34.8182 10.6489C34.6436 11.0031 34.3916 11.3134 34.0807 11.5569C33.7698 11.8003 33.4081 11.9706 33.0224 12.0551C32.6367 12.1397 32.237 12.1362 31.8528 12.0451C31.4686 11.954 31.1099 11.7776 30.8032 11.5288C30.4965 11.2801 30.2498 10.9655 30.0814 10.6084C29.9129 10.2513 29.8271 9.86084 29.8302 9.46601C29.8488 8.84498 29.9872 8.23339 30.2377 7.66484C30.8785 6.02716 31.6025 4.4233 32.407 2.85953V2.85953Z" fill="#D9D9D9"/>
<path d="M4.38388 14.7578C4.81774 15.6715 5.24502 16.4998 5.61314 17.3872C6.12854 18.4645 6.55079 19.5839 6.87528 20.7332C6.97132 21.0851 6.99074 21.4536 6.93225 21.8136C6.87376 22.1737 6.73871 22.517 6.53622 22.8205C6.33372 23.1239 6.06849 23.3804 5.75843 23.5726C5.44837 23.7647 5.10069 23.8882 4.73885 23.9346C4.38201 23.9892 4.01767 23.9685 3.66933 23.8738C3.32098 23.779 2.99636 23.6123 2.71641 23.3843C2.43646 23.1564 2.20738 22.8723 2.04395 22.5504C1.88053 22.2285 1.78638 21.876 1.76758 21.5155C1.77926 20.811 1.94531 20.1176 2.25403 19.4842C2.88509 17.8934 3.56875 16.3552 4.38388 14.7578Z" fill="#D9D9D9"/>
<path d="M39.6249 10.0708C40.0821 10.8943 40.4861 11.7462 40.8345 12.6214C41.1398 13.2702 41.3777 13.9486 41.5444 14.646C41.631 15.0201 41.5976 15.4119 41.4489 15.7659C41.3003 16.1199 41.0439 16.4181 40.7161 16.6181C40.3941 16.8302 40.017 16.9432 39.6315 16.9432C39.2459 16.9432 38.8688 16.8302 38.5468 16.6181C38.2246 16.4137 37.9742 16.1138 37.8304 15.7604C37.6867 15.4069 37.6568 15.0173 37.7449 14.646C38.0858 13.3836 38.5641 12.1624 39.1713 11.0043C39.3028 10.715 39.4409 10.4323 39.6249 10.0708Z" fill="#D9D9D9"/>
<path d="M11.7791 11.3264C12.2344 12.1531 12.6383 13.0071 12.9887 13.8835C13.2931 14.5327 13.531 15.211 13.6986 15.9082C13.7846 16.2829 13.7502 16.6752 13.6003 17.0293C13.4504 17.3834 13.1927 17.6812 12.8638 17.8803C12.5418 18.0923 12.1647 18.2053 11.7791 18.2053C11.3936 18.2053 11.0165 18.0923 10.6945 17.8803C10.3698 17.6834 10.1148 17.3901 9.96515 17.0412C9.81546 16.6923 9.77856 16.3053 9.85961 15.9345C10.1939 14.6542 10.6748 13.4167 11.2927 12.2467C11.457 11.964 11.6016 11.6879 11.7791 11.3264Z" fill="#D9D9D9"/>
<path d="M0.104265 41.0917C0.170001 41.2363 0.0385289 41.4861 0.327768 41.5058C0.255458 41.5847 0.13056 41.7162 0.071397 41.6504C0.0195838 41.5649 -0.00501903 41.4657 0.000851002 41.3659C0.00672104 41.2661 0.0427866 41.1705 0.104265 41.0917V41.0917Z" fill="#515151"/>
<path fill-rule="evenodd" clip-rule="evenodd" d="M35.5361 55.0803C34.2878 55.0432 33.0539 55.3551 31.9732 55.9809C31.9929 55.8333 32.0109 55.6898 32.0285 55.5496C32.0816 55.1277 32.1309 54.7355 32.2098 54.3506C32.3164 53.5282 32.73 52.7764 33.3676 52.2461C34.0052 51.7158 34.8197 51.4461 35.6478 51.4911C36.4492 51.5155 37.2424 51.6595 38.0012 51.9184C38.435 52.0499 38.606 51.9316 38.6585 51.4714C38.6904 51.0886 38.6904 50.7038 38.6585 50.321C38.6631 50.1032 38.5914 49.8906 38.4557 49.7201C38.32 49.5497 38.129 49.432 37.9157 49.3876C37.2554 49.1931 36.5726 49.0848 35.8845 49.0655C32.9198 48.9143 30.573 50.1961 29.5804 53.1082C28.7086 55.8672 28.6176 58.8136 29.3174 61.6211C29.4212 62.2489 29.6662 62.845 30.034 63.3643C30.4019 63.8835 30.8829 64.3125 31.4407 64.6186C32.4374 65.1143 33.5549 65.315 34.6618 65.1971C35.508 65.1887 36.3382 64.966 37.0751 64.5499C37.8119 64.1338 38.4313 63.5377 38.8755 62.8175C39.5238 61.6655 39.7886 60.337 39.6314 59.0245C39.4803 56.5857 37.9683 55.1329 35.5361 55.0803ZM32.2503 58.2667C32.1047 58.4662 32.1047 58.7719 32.1047 59.4715C32.1235 60.1478 32.2454 60.8173 32.4663 61.4567C32.5622 61.7893 32.7569 62.0849 33.0245 62.3044C33.2922 62.5239 33.6201 62.657 33.9651 62.686C34.3672 62.772 34.7861 62.7302 35.1633 62.5664C35.5405 62.4025 35.857 62.1249 36.0686 61.7723C36.5229 60.9753 36.6591 60.036 36.4499 59.1428C36.4365 58.9026 36.3738 58.6678 36.2655 58.453C36.1573 58.2382 36.0059 58.048 35.8208 57.8944C35.6357 57.7408 35.4209 57.627 35.1898 57.5601C34.9587 57.4933 34.7163 57.4749 34.4778 57.506C33.9505 57.5242 33.4312 57.6401 32.9461 57.8478C32.5736 58.0167 32.366 58.1081 32.2503 58.2667Z" fill="#149721"/>
<path fill-rule="evenodd" clip-rule="evenodd" d="M16.4793 50.6694V57.3154C16.4793 57.971 16.4804 58.6266 16.4815 59.2821C16.4842 60.9203 16.4868 62.5575 16.4727 64.1914C16.456 64.281 16.4596 64.3733 16.4832 64.4614C16.5068 64.5495 16.5497 64.6312 16.609 64.7005C16.6682 64.7698 16.7422 64.825 16.8256 64.8621C16.9089 64.8991 16.9995 64.917 17.0907 64.9145C17.7443 65.0136 18.4091 65.0136 19.0628 64.9145C19.1528 64.9097 19.2409 64.8865 19.3215 64.8463C19.4022 64.8061 19.4737 64.7497 19.5317 64.6806C19.5896 64.6116 19.6328 64.5313 19.6584 64.4449C19.684 64.3585 19.6916 64.2677 19.6807 64.1782V59.8922C19.6807 59.5833 19.753 59.4978 20.0751 59.4978C21.196 59.5637 22.3206 59.4685 23.4145 59.2151C24.2184 58.9934 24.9572 58.5818 25.5689 58.015C26.1805 57.4482 26.6471 56.7427 26.9292 55.958C27.2114 55.1733 27.301 54.3323 27.1904 53.5058C27.0798 52.6793 26.7723 51.8914 26.2937 51.2085C25.8504 50.6619 25.2944 50.2175 24.6636 49.9055C24.0329 49.5936 23.3422 49.4214 22.6388 49.4007C21.0375 49.2868 19.4314 49.256 17.8269 49.3087C16.8211 49.2955 16.4793 49.6505 16.4793 50.6694ZM19.6676 52.1222V54.3835C19.6676 55.1526 19.661 55.9218 19.6479 56.6974C19.6494 56.7249 19.6453 56.7574 19.6409 56.7911C19.6267 56.9022 19.6109 57.0261 19.7925 57.0261C20.0176 57.0195 20.2442 57.0253 20.4711 57.031C21.1522 57.0483 21.8352 57.0656 22.4811 56.75C23.043 56.4048 23.468 55.8756 23.6837 55.2524C23.8995 54.6292 23.8926 53.9505 23.6644 53.3317C23.5653 52.9625 23.3631 52.629 23.0813 52.3706C22.7996 52.1121 22.45 51.9393 22.0735 51.8724C21.3907 51.793 20.7032 51.7623 20.016 51.7804C19.7399 51.7672 19.6676 51.8461 19.6676 52.1222Z" fill="#149721"/>
<path fill-rule="evenodd" clip-rule="evenodd" d="M20.522 0.921103C20.3196 0.615884 20.1166 0.309722 19.9172 0L19.7857 0.184061C18.7886 1.53773 17.9277 2.98658 17.2154 4.5095C16.8434 5.20894 16.7405 6.0204 16.9262 6.79055C17.1283 7.47253 17.5555 8.06598 18.138 8.47421C18.7205 8.88245 19.4241 9.08142 20.1341 9.03872C21.8958 8.95984 23.3815 7.01405 22.8687 5.3312C22.3719 3.71107 21.4536 2.32609 20.522 0.921103ZM18.4906 7.49534C18.7359 7.73251 19.0267 7.91761 19.3454 8.03952C18.9797 7.54901 18.6647 7.02261 18.4054 6.46843C18.1139 5.91337 17.95 5.30028 17.9255 4.67383C17.7904 4.98718 17.7201 5.32462 17.7188 5.66585C17.7174 6.00708 17.7851 6.34505 17.9178 6.65945C18.0504 6.97385 18.2452 7.25818 18.4906 7.49534Z" fill="#D9D9D9"/>
<path fill-rule="evenodd" clip-rule="evenodd" d="M51.5585 11.8654C51.3843 11.6037 51.2095 11.3413 51.0366 11.0765C49.969 12.5144 49.0526 14.0586 48.302 15.6846C48.0453 16.1676 47.9238 16.711 47.9504 17.2574C47.9769 17.8037 48.1505 18.3327 48.4528 18.7886C48.7551 19.2444 49.175 19.6101 49.6679 19.8471C50.1609 20.0841 50.7088 20.1836 51.2536 20.135C53.0153 20.0561 54.5075 18.1169 53.9948 16.434C53.4875 14.7616 52.5311 13.3256 51.5585 11.8654ZM49.6102 18.5758C49.8538 18.8109 50.1422 18.9947 50.4583 19.1161C49.6709 18.1643 49.1775 17.004 49.0384 15.7767C48.9065 16.0885 48.8388 16.4237 48.8391 16.7622C48.8395 17.1008 48.9079 17.4358 49.0404 17.7474C49.1729 18.0589 49.3667 18.3407 49.6102 18.5758Z" fill="#D9D9D9"/>
</svg>
