<svg width="8" height="12" viewBox="0 0 8 12" fill="none" xmlns="http://www.w3.org/2000/svg">
<path d="M1.80005 2.67418e-05C1.57346 -0.00171849 1.35394 0.0821047 1.18208 0.236003C1.09887 0.309282 1.03159 0.400177 0.984697 0.502647C0.937801 0.605118 0.912348 0.716822 0.910079 0.830322C0.90781 0.943824 0.928759 1.05651 0.971519 1.16093C1.01428 1.26534 1.07785 1.35911 1.15807 1.43593L5.78247 6.00059L1.15806 10.5653C1.07785 10.6421 1.01428 10.7359 0.971519 10.8403C0.928759 10.9447 0.907809 11.0574 0.910079 11.1709C0.912348 11.2844 0.937801 11.3961 0.984697 11.4986C1.03159 11.601 1.09887 11.6919 1.18208 11.7652C1.35947 11.9207 1.5849 12.0041 1.81669 11.9998C2.04847 11.9956 2.27092 11.9041 2.44298 11.7422L7.66327 6.58957C7.74104 6.51467 7.8031 6.42381 7.84554 6.32271C7.88799 6.22162 7.90991 6.11247 7.90991 6.00212C7.90991 5.89177 7.88799 5.78259 7.84554 5.68149C7.8031 5.58039 7.74104 5.48953 7.66327 5.41463L2.44298 0.263009C2.26885 0.0928479 2.03877 -0.00127215 1.80005 2.67418e-05Z" fill="#159822"/>
</svg>
