<svg width="12" height="7" viewBox="0 0 12 7" fill="none" xmlns="http://www.w3.org/2000/svg">
<path d="M2.67029e-05 0.89014C-0.00171852 0.663543 0.0821047 0.444025 0.236003 0.272166C0.309282 0.188954 0.400177 0.121681 0.502647 0.0747848C0.605118 0.0278887 0.716822 0.00243577 0.830322 0.000166503C0.943824 -0.00210276 1.05651 0.0188468 1.16093 0.0616066C1.26534 0.104366 1.35911 0.167942 1.43593 0.248152L6.00059 4.87256L10.5653 0.248152C10.6421 0.167942 10.7359 0.104366 10.8403 0.0616066C10.9447 0.0188468 11.0574 -0.00210276 11.1709 0.000166503C11.2844 0.00243577 11.3961 0.0278887 11.4986 0.0747848C11.601 0.121681 11.6919 0.188954 11.7652 0.272166C11.9207 0.449555 12.0041 0.674984 11.9998 0.906774C11.9956 1.13856 11.9041 1.36101 11.7422 1.53306L6.58957 6.75336C6.51467 6.83113 6.42381 6.89319 6.32271 6.93563C6.22161 6.97807 6.11247 7 6.00212 7C5.89177 7 5.78259 6.97807 5.68149 6.93563C5.58039 6.89319 5.48953 6.83113 5.41463 6.75336L0.263009 1.53306C0.0928478 1.35894 -0.0012722 1.12885 2.67029e-05 0.89014Z" fill="#159822"/>
</svg>
