<svg width="7" height="12" viewBox="0 0 7 12" fill="none" xmlns="http://www.w3.org/2000/svg">
<path d="M6.10986 2.6664e-05C6.33646 -0.00171855 6.55598 0.0821047 6.72783 0.236003C6.81105 0.309282 6.87832 0.400177 6.92522 0.502647C6.97211 0.605118 6.99756 0.716822 6.99983 0.830322C7.0021 0.943824 6.98115 1.05651 6.93839 1.16093C6.89563 1.26534 6.83206 1.35911 6.75185 1.43593L2.12744 6.00059L6.75185 10.5653C6.83206 10.6421 6.89563 10.7359 6.93839 10.8403C6.98115 10.9447 7.0021 11.0574 6.99983 11.1709C6.99756 11.2844 6.97211 11.3961 6.92522 11.4986C6.87832 11.601 6.81105 11.6919 6.72783 11.7652C6.55044 11.9207 6.32502 12.0041 6.09323 11.9998C5.86144 11.9956 5.63899 11.9041 5.46694 11.7422L0.246639 6.58957C0.168868 6.51467 0.106812 6.42381 0.064369 6.32271C0.0219257 6.22161 2.57352e-07 6.11247 2.62176e-07 6.00212C2.66999e-07 5.89177 0.0219257 5.78259 0.064369 5.68149C0.106812 5.58039 0.168868 5.48953 0.246639 5.41463L5.46694 0.263009C5.64106 0.0928478 5.87115 -0.00127225 6.10986 2.6664e-05Z" fill="#159822"/>
</svg>
