<svg width="12" height="7" viewBox="0 0 12 7" fill="none" xmlns="http://www.w3.org/2000/svg">
<path d="M2.67029e-05 6.10986C-0.00171852 6.33646 0.0821047 6.55597 0.236003 6.72783C0.309282 6.81105 0.400177 6.87832 0.502647 6.92522C0.605118 6.97211 0.716822 6.99756 0.830322 6.99983C0.943824 7.0021 1.05651 6.98115 1.16093 6.93839C1.26534 6.89563 1.35911 6.83206 1.43593 6.75185L6.00059 2.12744L10.5653 6.75185C10.6421 6.83206 10.7359 6.89563 10.8403 6.93839C10.9447 6.98115 11.0574 7.0021 11.1709 6.99983C11.2844 6.99756 11.3961 6.97211 11.4986 6.92522C11.601 6.87832 11.6919 6.81105 11.7652 6.72783C11.9207 6.55044 12.0041 6.32502 11.9998 6.09323C11.9956 5.86144 11.9041 5.63899 11.7422 5.46694L6.58957 0.246639C6.51467 0.168868 6.42381 0.106812 6.32271 0.0643687C6.22161 0.0219254 6.11247 0 6.00212 0C5.89177 0 5.78259 0.0219254 5.68149 0.0643687C5.58039 0.106812 5.48953 0.168868 5.41463 0.246639L0.263009 5.46694C0.0928478 5.64106 -0.0012722 5.87115 2.67029e-05 6.10986Z" fill="#159822"/>
</svg>
