<svg width="425" height="41" viewBox="0 0 425 41" fill="none" xmlns="http://www.w3.org/2000/svg">
<path d="M19.4324 1.22766C19.9376 -0.389073 22.2161 -0.415948 22.7593 1.18842L26.7285 12.9115C26.9706 13.6265 27.6439 14.1055 28.3987 14.0999L40.7707 14.0076C42.4639 13.9949 43.1857 16.155 41.8251 17.1628L31.8386 24.5602C31.2316 25.0098 30.9818 25.7982 31.2189 26.5153L35.0933 38.2306C35.6249 39.8379 33.791 41.1878 32.4142 40.2026L22.3551 33.0043C21.7377 32.5625 20.9057 32.5693 20.2957 33.0212L10.3661 40.3764C9.00067 41.3879 7.14035 40.0552 7.6587 38.437L11.4279 26.6698C11.6597 25.9461 11.3978 25.1556 10.7799 24.7134L0.7346 17.525C-0.643437 16.5389 0.0451643 14.3655 1.73964 14.3528L14.0864 14.2607C14.8467 14.255 15.5164 13.7589 15.7432 13.0331L19.4324 1.22766Z" fill="#C0C0C0"/>
<path d="M114.969 1.22766C115.474 -0.389075 117.753 -0.415947 118.296 1.18842L122.265 12.9115C122.507 13.6264 123.181 14.1055 123.935 14.0999L136.307 14.0076C138.001 13.9949 138.722 16.155 137.362 17.1628L127.383 24.5545C126.772 25.0069 126.524 25.8016 126.767 26.5214L130.728 38.2187C131.271 39.8246 129.442 41.1875 128.059 40.2068L117.895 32.9999C117.276 32.5607 116.444 32.5712 115.836 33.0259L106.011 40.3717C104.652 41.3878 102.787 40.0684 103.293 38.4487L106.976 26.6634C107.201 25.9425 106.939 25.1584 106.324 24.7189L96.2713 17.525C94.8933 16.5388 95.5819 14.3654 97.2764 14.3528L109.623 14.2607C110.383 14.255 111.053 13.7588 111.28 13.0331L114.969 1.22766Z" fill="#C0C0C0"/>
<path d="M210.611 1.2158C211.128 -0.397281 213.407 -0.407989 213.938 1.20017L217.808 12.8996C218.046 13.6205 218.722 14.1053 219.482 14.0997L231.844 14.0074C233.537 13.9948 234.259 16.1548 232.899 17.1627L222.92 24.5544C222.309 25.0067 222.06 25.8015 222.304 26.5213L226.252 38.1807C226.797 39.7903 224.958 41.1534 223.577 40.1645L213.57 33.0042C212.953 32.5623 212.121 32.5692 211.511 33.0211L201.529 40.4152C200.169 41.4229 198.313 40.1034 198.818 38.4876L202.513 26.6633C202.738 25.9424 202.475 25.1583 201.861 24.7187L191.808 17.5248C190.43 16.5387 191.119 14.3653 192.813 14.3527L205.169 14.2605C205.925 14.2548 206.592 13.7645 206.822 13.0447L210.611 1.2158Z" fill="#C0C0C0"/>
<path d="M306.148 1.21581C306.665 -0.397282 308.943 -0.407989 309.475 1.20017L313.344 12.8995C313.583 13.6205 314.259 14.1053 315.018 14.0997L327.421 14.0071C329.11 13.9945 329.835 16.1462 328.482 17.1577L318.582 24.5591C317.98 25.0096 317.733 25.7951 317.969 26.5095L321.845 38.2304C322.377 39.8378 320.543 41.1877 319.166 40.2024L309.107 33.0042C308.49 32.5623 307.658 32.5692 307.048 33.0211L297.066 40.4152C295.705 41.4228 293.849 40.1034 294.354 38.4875L298.049 26.6633C298.275 25.9423 298.012 25.1582 297.398 24.7187L287.345 17.5248C285.967 16.5387 286.655 14.3653 288.35 14.3527L300.706 14.2605C301.462 14.2548 302.128 13.7645 302.359 13.0447L306.148 1.21581Z" fill="#C0C0C0"/>
<path d="M401.721 1.22766C402.226 -0.389075 404.505 -0.415947 405.048 1.18842L409.017 12.9115C409.259 13.6264 409.933 14.1055 410.688 14.0999L423.06 14.0076C424.753 13.9949 425.475 16.155 424.114 17.1628L414.128 24.5602C413.521 25.0098 413.271 25.7982 413.508 26.5153L417.382 38.2305C417.914 39.8379 416.08 41.1878 414.703 40.2026L404.644 33.0043C404.027 32.5625 403.195 32.5693 402.585 33.0212L392.655 40.3764C391.29 41.3879 389.429 40.0552 389.948 38.4369L393.715 26.6752C393.948 25.9489 393.683 25.1556 393.061 24.7145L382.928 17.5293C381.543 16.5469 382.229 14.3654 383.927 14.3528L396.375 14.2606C397.136 14.255 397.805 13.7588 398.032 13.033L401.721 1.22766Z" fill="#C0C0C0"/>
</svg>
