<svg width="317" height="27" viewBox="0 0 317 27" fill="none" xmlns="http://www.w3.org/2000/svg">
<path d="M13.2483 0.813856C13.5927 -0.25793 15.1461 -0.275745 15.5164 0.787844L18.2225 8.55948C18.3876 9.03343 18.8466 9.35102 19.3612 9.34729L27.796 9.28609C28.9503 9.27771 29.4424 10.7097 28.5148 11.3778L21.7064 16.2818C21.2926 16.5798 21.1222 17.1025 21.2839 17.5779L23.9253 25.3443C24.2877 26.4099 23.0375 27.3048 22.0988 26.6516L15.2409 21.8797C14.8199 21.5868 14.2528 21.5913 13.8368 21.8909L7.06725 26.7669C6.13633 27.4374 4.86803 26.5539 5.22142 25.4811L7.79112 17.6803C7.94915 17.2005 7.77064 16.6765 7.34934 16.3833L0.500824 11.6179C-0.438672 10.9642 0.0307914 9.52335 1.18603 9.51496L9.60358 9.45389C10.122 9.45012 10.5785 9.1212 10.7331 8.64007L13.2483 0.813856Z" fill="#C4C4C4"/>
<path d="M85.2483 0.81386C85.5927 -0.257932 87.1461 -0.275746 87.5164 0.78785L90.2225 8.55951C90.3876 9.03346 90.8466 9.35106 91.3612 9.34732L99.796 9.28612C100.95 9.27775 101.442 10.7097 100.515 11.3778L93.7116 16.2781C93.2953 16.578 93.1257 17.1048 93.2918 17.582L95.9919 25.3365C96.3626 26.4012 95.1152 27.3047 94.1723 26.6546L87.2431 21.8769C86.8209 21.5857 86.2536 21.5926 85.839 21.8941L79.1407 26.7639C78.2142 27.4375 76.943 26.5628 77.2881 25.489L79.7989 17.6761C79.9525 17.1982 79.7734 16.6784 79.3546 16.387L72.5008 11.6179C71.5613 10.9642 72.0308 9.52338 73.186 9.515L81.6036 9.45392C82.122 9.45016 82.5785 9.12123 82.7331 8.6401L85.2483 0.81386Z" fill="#C4C4C4"/>
<path d="M157.32 0.805234C157.672 -0.263122 159.226 -0.270213 159.588 0.794878L162.226 8.54345C162.389 9.02094 162.85 9.34205 163.368 9.33829L171.796 9.2772C172.95 9.26883 173.442 10.6994 172.515 11.3669L165.712 16.2625C165.295 16.5621 165.126 17.0885 165.292 17.5652L167.983 25.2873C168.355 26.3533 167.102 27.2561 166.159 26.6012L159.338 21.8588C158.917 21.5662 158.349 21.5707 157.934 21.87L151.128 26.7672C150.201 27.4346 148.935 26.5607 149.28 25.4905L151.799 17.6592C151.953 17.1818 151.773 16.6625 151.355 16.3713L144.501 11.6068C143.561 10.9537 144.031 9.51423 145.186 9.50585L153.61 9.44479C154.125 9.44105 154.58 9.1163 154.737 8.63958L157.32 0.805234Z" fill="#C4C4C4"/>
<path d="M229.308 0.805236C229.659 -0.263122 231.211 -0.270214 231.574 0.79488L234.209 8.54344C234.371 9.02094 234.832 9.34204 235.349 9.33829L243.797 9.27699C244.948 9.26864 245.441 10.6937 244.52 11.3636L237.777 16.2656C237.366 16.564 237.198 17.0842 237.359 17.5574L239.999 25.3202C240.361 26.3848 239.112 27.2788 238.175 26.6263L231.323 21.8588C230.903 21.5662 230.336 21.5707 229.92 21.87L223.121 26.7672C222.195 27.4346 220.931 26.5607 221.275 25.4905L223.792 17.6592C223.945 17.1818 223.766 16.6625 223.348 16.3713L216.5 11.6068C215.562 10.9537 216.031 9.51422 217.185 9.50585L225.601 9.44478C226.116 9.44105 226.57 9.11629 226.727 8.63958L229.308 0.805236Z" fill="#C4C4C4"/>
<path d="M301.286 0.813857C301.629 -0.257931 303.179 -0.275745 303.549 0.787846L306.248 8.55947C306.413 9.03342 306.871 9.35102 307.384 9.34728L315.799 9.28608C316.95 9.27771 317.441 10.7097 316.516 11.3778L309.724 16.2818C309.311 16.5798 309.141 17.1025 309.302 17.5779L311.937 25.3443C312.299 26.4099 311.052 27.3048 310.115 26.6516L303.274 21.8797C302.854 21.5868 302.288 21.5913 301.873 21.8909L295.12 26.7669C294.191 27.4374 292.926 26.5539 293.278 25.4811L295.84 17.6839C295.999 17.2024 295.819 16.6765 295.396 16.3841L288.504 11.6208C287.561 10.9695 288.028 9.52329 289.183 9.51495L297.65 9.45383C298.167 9.4501 298.622 9.12117 298.777 8.64001L301.286 0.813857Z" fill="#C4C4C4"/>
</svg>
