<svg width="25" height="24" viewBox="0 0 25 24" fill="none" xmlns="http://www.w3.org/2000/svg">
<path d="M11.7346 0.932436C12.0234 0.00831127 13.3257 -0.0070492 13.6362 0.910009L15.905 7.61092C16.0434 8.01958 16.4282 8.29341 16.8597 8.29019L23.9316 8.23742C24.8994 8.2302 25.312 9.46488 24.5343 10.041L18.826 14.2693C18.4791 14.5263 18.3362 14.9769 18.4718 15.3868L20.6864 22.0833C20.9902 23.0021 19.942 23.7736 19.155 23.2105L13.4052 19.096C13.0523 18.8434 12.5768 18.8473 12.228 19.1056L6.55233 23.3099C5.77183 23.888 4.70848 23.1263 5.00477 22.2013L7.15821 15.4783C7.29119 15.0631 7.1399 14.6096 6.7843 14.3575L0.992346 10.2505C0.200417 9.68892 0.592578 8.44196 1.56337 8.43477L8.67876 8.38206C9.1134 8.37885 9.49619 8.09523 9.62584 7.68037L11.7346 0.932436Z" fill="#C0C0C0"/>
</svg>
