<svg width="167" height="28" viewBox="0 0 167 28" fill="none" xmlns="http://www.w3.org/2000/svg">
<path d="M13.1894 2.93243C13.4782 2.0083 14.7805 1.99294 15.091 2.91L17.3599 9.61092C17.4982 10.0196 17.8831 10.2934 18.3145 10.2902L25.3864 10.2374C26.3542 10.2302 26.7668 11.4649 25.9891 12.041L20.2808 16.2693C19.9339 16.5263 19.791 16.9769 19.9266 17.3868L22.1412 24.0833C22.445 25.002 21.3968 25.7736 20.6098 25.2105L14.86 21.096C14.5071 20.8434 14.0316 20.8473 13.6828 21.1056L8.00713 25.3099C7.22663 25.888 6.16327 25.1263 6.45957 24.2013L8.61403 17.4751C8.74653 17.0615 8.59686 16.6096 8.24364 16.3568L2.50175 12.248C1.71407 11.6843 2.10767 10.442 3.07623 10.4348L10.1336 10.3821C10.5682 10.3789 10.951 10.0953 11.0806 9.68041L13.1894 2.93243Z" fill="#C0C0C0"/>
<path d="M47.8078 2.93244C48.0966 2.00831 49.399 1.99295 49.7095 2.91001L51.9783 9.61092C52.1166 10.0196 52.5015 10.2934 52.9329 10.2902L60.0048 10.2374C60.9726 10.2302 61.3852 11.4649 60.6075 12.041L54.9035 16.2661C54.5545 16.5246 54.4123 16.9789 54.5516 17.3903L56.8154 24.0765C57.1262 24.9944 56.0803 25.7735 55.2898 25.2129L49.4803 21.0935C49.1263 20.8424 48.6507 20.8484 48.3031 21.1083L42.6871 25.3071C41.9103 25.888 40.8445 25.1338 41.1338 24.208L43.239 17.4715C43.3678 17.0594 43.2176 16.6112 42.8665 16.36L37.1202 12.248C36.3325 11.6843 36.7261 10.442 37.6946 10.4348L44.752 10.3821C45.1867 10.3789 45.5694 10.0953 45.699 9.68041L47.8078 2.93244Z" fill="#C0C0C0"/>
<path d="M82.4833 2.92574C82.7787 2.0037 84.0811 1.99758 84.3851 2.9168L86.5967 9.60417C86.733 10.0163 87.1195 10.2934 87.5536 10.2902L94.62 10.2374C95.5878 10.2302 96.0004 11.4649 95.2227 12.041L89.5188 16.2661C89.1698 16.5246 89.0276 16.9789 89.1669 17.3903L91.4233 24.0549C91.7348 24.9749 90.6841 25.7541 89.8942 25.1888L84.1747 21.096C83.8218 20.8434 83.3463 20.8473 82.9976 21.1056L77.2918 25.3321C76.5142 25.9081 75.4535 25.1539 75.7421 24.2303L77.8542 17.4715C77.983 17.0594 77.8328 16.6112 77.4817 16.36L71.7354 12.248C70.9477 11.6843 71.3413 10.442 72.3099 10.4348L79.3727 10.3821C79.8047 10.3788 80.1858 10.0986 80.3176 9.68714L82.4833 2.92574Z" fill="#C0C0C0"/>
<path d="M117.099 2.92575C117.394 2.00371 118.696 1.99759 119 2.91681L121.212 9.60417C121.348 10.0163 121.735 10.2934 122.169 10.2902L129.258 10.2373C130.224 10.23 130.638 11.4599 129.865 12.0381L124.206 16.2687C123.862 16.5263 123.72 16.9753 123.856 17.3836L126.071 24.0833C126.375 25.0021 125.327 25.7736 124.54 25.2105L118.79 21.096C118.437 20.8434 117.962 20.8473 117.613 21.1056L111.907 25.3321C111.129 25.9081 110.069 25.1539 110.357 24.2303L112.469 17.4715C112.598 17.0594 112.448 16.6112 112.097 16.36L106.351 12.248C105.563 11.6843 105.957 10.442 106.925 10.4348L113.988 10.3821C114.42 10.3788 114.801 10.0986 114.933 9.68714L117.099 2.92575Z" fill="#C0C0C0"/>
<path d="M151.735 2.93244C152.023 2.00831 153.326 1.99295 153.636 2.91001L155.905 9.61092C156.043 10.0196 156.428 10.2934 156.86 10.2902L163.932 10.2374C164.899 10.2302 165.312 11.4649 164.534 12.041L158.826 16.2693C158.479 16.5263 158.336 16.9769 158.472 17.3868L160.686 24.0833C160.99 25.0021 159.942 25.7736 159.155 25.2105L153.405 21.096C153.052 20.8434 152.577 20.8473 152.228 21.1056L146.552 25.3099C145.772 25.888 144.708 25.1263 145.005 24.2013L147.158 17.4783C147.291 17.0631 147.14 16.6096 146.784 16.3575L140.992 12.2505C140.2 11.6889 140.593 10.442 141.563 10.4348L148.679 10.3821C149.113 10.3788 149.496 10.0952 149.626 9.68037L151.735 2.93244Z" fill="#C0C0C0"/>
</svg>
