<svg width="25" height="24" viewBox="0 0 25 24" fill="none" xmlns="http://www.w3.org/2000/svg">
<path d="M11.1894 0.932425C11.4782 0.00830102 12.7805 -0.00706029 13.091 0.909997L15.3599 7.61092C15.4982 8.01958 15.8831 8.29341 16.3145 8.29019L23.3864 8.23742C24.3542 8.2302 24.7668 9.46488 23.9891 10.041L18.2808 14.2693C17.9339 14.5263 17.791 14.9769 17.9266 15.3868L20.1412 22.0833C20.445 23.002 19.3968 23.7736 18.6098 23.2105L12.86 19.096C12.5071 18.8434 12.0316 18.8473 11.6828 19.1056L6.00713 23.3099C5.22663 23.888 4.16327 23.1263 4.45957 22.2013L6.61403 15.4751C6.74653 15.0615 6.59686 14.6096 6.24364 14.3568L0.501752 10.248C-0.285934 9.6843 0.10767 8.44199 1.07623 8.43477L8.13362 8.3821C8.56824 8.37886 8.951 8.09525 9.08064 7.68041L11.1894 0.932425Z" fill="#FBBD09"/>
</svg>
