<svg width="41" height="14" viewBox="0 0 41 14" fill="none" xmlns="http://www.w3.org/2000/svg">
<path d="M8.7714 0.312189L5.2936 9.33439L4.95426 7.46489C4.10601 5.18899 2.23987 2.83189 0.0344238 1.93779L3.25776 13.561H6.99L12.5885 0.312189H8.7714ZM11.7402 13.561L13.9457 0.312189H17.5083L15.3029 13.561H11.7402ZM32.9464 8.84669C33.2009 8.11519 34.3884 5.10779 34.3884 5.10779C34.3884 5.10779 34.6429 4.37619 34.8974 3.80729L35.1518 4.94519L36.0001 8.76539H32.9464V8.84669ZM37.2725 0.312189H34.5581C33.7098 0.312189 33.0312 0.555989 32.6919 1.45009L27.4328 13.561H31.1651C31.1651 13.561 31.7589 11.9354 31.9285 11.5289C32.3526 11.5289 36.0001 11.5289 36.509 11.5289C36.5939 12.0166 36.9332 13.4797 36.9332 13.4797H40.2413C40.1565 13.561 37.2725 0.312189 37.2725 0.312189ZM28.1962 0.637289C27.5176 0.393489 26.4149 0.0683899 24.9729 0.0683899C21.4951 0.0683899 18.9503 1.85649 18.9503 4.45749C18.9503 6.32699 20.7316 7.46489 22.0888 8.03389C23.446 8.68409 23.955 9.09049 23.955 9.65949C23.955 10.5536 22.8523 10.96 21.8344 10.96C20.3923 10.96 19.6289 10.7974 18.5262 10.2285L18.0173 10.0659L17.5083 12.992C18.3566 13.3984 19.8834 13.6423 21.4951 13.7235C25.2274 13.7235 27.6873 11.9354 27.6873 9.17179C27.6873 7.62749 26.7542 6.48949 24.7184 5.59549C23.446 4.94519 22.6826 4.53879 22.7674 3.96979C22.7674 3.40089 23.446 2.83189 24.8032 2.83189C25.7363 2.83189 26.6694 2.99449 27.4328 3.31959L27.7721 3.48219C27.6873 3.48219 28.1962 0.637289 28.1962 0.637289Z" fill="#1B548E"/>
</svg>
